<mxfile host="app.diagrams.net" agent="Mozilla/5.0 (Windows NT 10.0; Win64; x64) AppleWebKit/537.36 (KHTML, like Gecko) Chrome/131.0.0.0 Safari/537.36 Edg/131.0.0.0" version="24.9.0">
  <diagram name="Page-1" id="iBLRJY-gE2kyyVANsL76">
    <mxGraphModel dx="2171" dy="1427" grid="0" gridSize="10" guides="1" tooltips="1" connect="1" arrows="1" fold="1" page="0" pageScale="1" pageWidth="1100" pageHeight="850" math="0" shadow="0">
      <root>
        <mxCell id="0" />
        <mxCell id="1" parent="0" />
        <mxCell id="06jpUtFlK6CPKatlT8Im-50" value="" style="group" parent="1" vertex="1" connectable="0">
          <mxGeometry x="-968" y="-365" width="370" height="413" as="geometry" />
        </mxCell>
        <mxCell id="06jpUtFlK6CPKatlT8Im-46" value="" style="rounded=0;whiteSpace=wrap;html=1;fillColor=none;" parent="06jpUtFlK6CPKatlT8Im-50" vertex="1">
          <mxGeometry x="-41" width="357" height="338" as="geometry" />
        </mxCell>
        <mxCell id="06jpUtFlK6CPKatlT8Im-49" value="Alternative" style="rounded=0;whiteSpace=wrap;html=1;fillColor=none;" parent="06jpUtFlK6CPKatlT8Im-50" vertex="1">
          <mxGeometry x="-41" width="73.35714285714286" height="43.08273381294964" as="geometry" />
        </mxCell>
        <mxCell id="06jpUtFlK6CPKatlT8Im-53" value="" style="endArrow=classic;html=1;rounded=0;fontSize=12;startSize=8;endSize=8;curved=1;dashed=1;" parent="06jpUtFlK6CPKatlT8Im-50" edge="1">
          <mxGeometry width="50" height="50" relative="1" as="geometry">
            <mxPoint x="268" y="199" as="sourcePoint" />
            <mxPoint x="94" y="201" as="targetPoint" />
          </mxGeometry>
        </mxCell>
        <mxCell id="06jpUtFlK6CPKatlT8Im-60" value="" style="endArrow=none;dashed=1;html=1;rounded=0;fontSize=12;startSize=8;endSize=8;curved=1;exitX=0;exitY=0.25;exitDx=0;exitDy=0;entryX=1;entryY=0.25;entryDx=0;entryDy=0;strokeWidth=3;" parent="06jpUtFlK6CPKatlT8Im-50" source="06jpUtFlK6CPKatlT8Im-46" target="06jpUtFlK6CPKatlT8Im-46" edge="1">
          <mxGeometry width="50" height="50" relative="1" as="geometry">
            <mxPoint x="340" y="190" as="sourcePoint" />
            <mxPoint x="390" y="140" as="targetPoint" />
          </mxGeometry>
        </mxCell>
        <mxCell id="06jpUtFlK6CPKatlT8Im-62" value="" style="endArrow=classic;html=1;rounded=0;fontSize=12;startSize=8;endSize=8;curved=1;dashed=1;" parent="06jpUtFlK6CPKatlT8Im-50" edge="1">
          <mxGeometry width="50" height="50" relative="1" as="geometry">
            <mxPoint x="277" y="43.08000000000004" as="sourcePoint" />
            <mxPoint x="103" y="45.08000000000004" as="targetPoint" />
          </mxGeometry>
        </mxCell>
        <mxCell id="06jpUtFlK6CPKatlT8Im-64" value="[if wrong username]" style="text;html=1;align=center;verticalAlign=middle;whiteSpace=wrap;rounded=0;fontSize=16;" parent="06jpUtFlK6CPKatlT8Im-50" vertex="1">
          <mxGeometry x="-32" y="48" width="103" height="30" as="geometry" />
        </mxCell>
        <mxCell id="06jpUtFlK6CPKatlT8Im-65" value="" style="endArrow=none;dashed=1;html=1;rounded=0;fontSize=12;startSize=8;endSize=8;curved=1;exitX=0;exitY=0.25;exitDx=0;exitDy=0;entryX=1;entryY=0.25;entryDx=0;entryDy=0;strokeWidth=3;" parent="06jpUtFlK6CPKatlT8Im-50" edge="1">
          <mxGeometry width="50" height="50" relative="1" as="geometry">
            <mxPoint x="-41" y="168" as="sourcePoint" />
            <mxPoint x="316" y="168" as="targetPoint" />
          </mxGeometry>
        </mxCell>
        <mxCell id="06jpUtFlK6CPKatlT8Im-69" value="[elseif wrong password]" style="text;html=1;align=center;verticalAlign=middle;whiteSpace=wrap;rounded=0;fontSize=16;" parent="06jpUtFlK6CPKatlT8Im-50" vertex="1">
          <mxGeometry x="-32" y="114" width="103" height="30" as="geometry" />
        </mxCell>
        <mxCell id="06jpUtFlK6CPKatlT8Im-71" value="[elseif email not verified]" style="text;html=1;align=center;verticalAlign=middle;whiteSpace=wrap;rounded=0;fontSize=16;" parent="06jpUtFlK6CPKatlT8Im-50" vertex="1">
          <mxGeometry x="-41" y="185.5" width="103" height="30" as="geometry" />
        </mxCell>
        <mxCell id="06jpUtFlK6CPKatlT8Im-73" value="[else]" style="text;html=1;align=center;verticalAlign=middle;whiteSpace=wrap;rounded=0;fontSize=16;" parent="06jpUtFlK6CPKatlT8Im-50" vertex="1">
          <mxGeometry x="-42" y="247" width="103" height="30" as="geometry" />
        </mxCell>
        <mxCell id="06jpUtFlK6CPKatlT8Im-75" value="" style="endArrow=classic;html=1;rounded=0;fontSize=12;startSize=8;endSize=8;curved=1;dashed=1;" parent="06jpUtFlK6CPKatlT8Im-50" edge="1">
          <mxGeometry width="50" height="50" relative="1" as="geometry">
            <mxPoint x="267" y="261" as="sourcePoint" />
            <mxPoint x="93" y="263" as="targetPoint" />
          </mxGeometry>
        </mxCell>
        <mxCell id="06jpUtFlK6CPKatlT8Im-70" value="" style="endArrow=none;dashed=1;html=1;rounded=0;fontSize=12;startSize=8;endSize=8;curved=1;exitX=0;exitY=0.25;exitDx=0;exitDy=0;entryX=1;entryY=0.25;entryDx=0;entryDy=0;strokeWidth=3;" parent="06jpUtFlK6CPKatlT8Im-50" edge="1">
          <mxGeometry width="50" height="50" relative="1" as="geometry">
            <mxPoint x="-35" y="230" as="sourcePoint" />
            <mxPoint x="322" y="230" as="targetPoint" />
          </mxGeometry>
        </mxCell>
        <mxCell id="06jpUtFlK6CPKatlT8Im-72" value="" style="endArrow=none;dashed=1;html=1;rounded=0;fontSize=12;startSize=8;endSize=8;curved=1;exitX=0;exitY=0.25;exitDx=0;exitDy=0;entryX=1;entryY=0.25;entryDx=0;entryDy=0;strokeWidth=3;" parent="06jpUtFlK6CPKatlT8Im-50" edge="1">
          <mxGeometry width="50" height="50" relative="1" as="geometry">
            <mxPoint x="-35" y="300" as="sourcePoint" />
            <mxPoint x="322" y="300" as="targetPoint" />
          </mxGeometry>
        </mxCell>
        <mxCell id="dnPCXCKaiIPUW16wsFYT-12" value="&lt;font style=&quot;font-size: 14px;&quot;&gt;404 Response User not found.&lt;/font&gt;" style="text;html=1;align=center;verticalAlign=middle;whiteSpace=wrap;rounded=0;fontSize=16;" vertex="1" parent="06jpUtFlK6CPKatlT8Im-50">
          <mxGeometry x="91" y="6.54" width="208" height="30" as="geometry" />
        </mxCell>
        <mxCell id="06jpUtFlK6CPKatlT8Im-66" value="" style="endArrow=classic;html=1;rounded=0;fontSize=12;startSize=8;endSize=8;curved=1;dashed=1;" parent="06jpUtFlK6CPKatlT8Im-50" edge="1">
          <mxGeometry width="50" height="50" relative="1" as="geometry">
            <mxPoint x="272" y="122" as="sourcePoint" />
            <mxPoint x="98" y="124" as="targetPoint" />
          </mxGeometry>
        </mxCell>
        <mxCell id="06jpUtFlK6CPKatlT8Im-3" value="User" style="shape=umlActor;verticalLabelPosition=bottom;verticalAlign=top;html=1;outlineConnect=0;" parent="1" vertex="1">
          <mxGeometry x="-895" y="-608" width="30" height="60" as="geometry" />
        </mxCell>
        <mxCell id="06jpUtFlK6CPKatlT8Im-4" value="&lt;span style=&quot;font-size: 20px;&quot;&gt;EXTR API SERVER&lt;/span&gt;" style="rounded=0;whiteSpace=wrap;html=1;" parent="1" vertex="1">
          <mxGeometry x="-504" y="-608" width="120" height="60" as="geometry" />
        </mxCell>
        <mxCell id="06jpUtFlK6CPKatlT8Im-6" value="&lt;span style=&quot;font-size: 20px;&quot;&gt;MONGODB&lt;/span&gt;" style="rounded=0;whiteSpace=wrap;html=1;" parent="1" vertex="1">
          <mxGeometry x="-282" y="-608" width="136" height="60" as="geometry" />
        </mxCell>
        <mxCell id="06jpUtFlK6CPKatlT8Im-9" value="" style="endArrow=none;dashed=1;html=1;rounded=0;fontSize=12;startSize=8;endSize=8;curved=1;strokeWidth=5;" parent="1" edge="1">
          <mxGeometry width="50" height="50" relative="1" as="geometry">
            <mxPoint x="-670" y="42" as="sourcePoint" />
            <mxPoint x="-669.59" y="-548" as="targetPoint" />
          </mxGeometry>
        </mxCell>
        <mxCell id="06jpUtFlK6CPKatlT8Im-11" value="" style="endArrow=none;dashed=1;html=1;rounded=0;fontSize=12;startSize=8;endSize=8;curved=1;strokeWidth=5;" parent="1" edge="1">
          <mxGeometry width="50" height="50" relative="1" as="geometry">
            <mxPoint x="-445" y="45" as="sourcePoint" />
            <mxPoint x="-444.59" y="-545" as="targetPoint" />
          </mxGeometry>
        </mxCell>
        <mxCell id="06jpUtFlK6CPKatlT8Im-13" value="" style="endArrow=none;dashed=1;html=1;rounded=0;fontSize=12;startSize=8;endSize=8;curved=1;strokeWidth=5;" parent="1" edge="1">
          <mxGeometry width="50" height="50" relative="1" as="geometry">
            <mxPoint x="-215" y="42" as="sourcePoint" />
            <mxPoint x="-214.58999999999997" y="-548" as="targetPoint" />
          </mxGeometry>
        </mxCell>
        <mxCell id="06jpUtFlK6CPKatlT8Im-14" value="" style="endArrow=classic;html=1;rounded=0;fontSize=12;startSize=8;endSize=8;curved=1;" parent="1" edge="1">
          <mxGeometry width="50" height="50" relative="1" as="geometry">
            <mxPoint x="-653" y="-472" as="sourcePoint" />
            <mxPoint x="-472" y="-475" as="targetPoint" />
          </mxGeometry>
        </mxCell>
        <mxCell id="06jpUtFlK6CPKatlT8Im-16" value="&lt;font style=&quot;font-size: 14px;&quot;&gt;POST/login&lt;/font&gt;" style="edgeLabel;html=1;align=center;verticalAlign=middle;resizable=0;points=[];fontSize=12;" parent="06jpUtFlK6CPKatlT8Im-14" vertex="1" connectable="0">
          <mxGeometry x="-0.1583" y="4" relative="1" as="geometry">
            <mxPoint as="offset" />
          </mxGeometry>
        </mxCell>
        <mxCell id="06jpUtFlK6CPKatlT8Im-20" value="" style="endArrow=classic;html=1;rounded=0;fontSize=12;startSize=8;endSize=8;curved=1;" parent="1" edge="1">
          <mxGeometry width="50" height="50" relative="1" as="geometry">
            <mxPoint x="-425" y="-456" as="sourcePoint" />
            <mxPoint x="-244" y="-459" as="targetPoint" />
          </mxGeometry>
        </mxCell>
        <mxCell id="06jpUtFlK6CPKatlT8Im-21" value="&lt;font style=&quot;font-size: 14px;&quot;&gt;Query User&lt;/font&gt;" style="edgeLabel;html=1;align=center;verticalAlign=middle;resizable=0;points=[];fontSize=12;" parent="06jpUtFlK6CPKatlT8Im-20" vertex="1" connectable="0">
          <mxGeometry x="-0.1583" y="4" relative="1" as="geometry">
            <mxPoint as="offset" />
          </mxGeometry>
        </mxCell>
        <mxCell id="06jpUtFlK6CPKatlT8Im-34" value="" style="endArrow=classic;html=1;rounded=0;fontSize=12;startSize=8;endSize=8;curved=1;" parent="1" edge="1">
          <mxGeometry width="50" height="50" relative="1" as="geometry">
            <mxPoint x="-253" y="-397" as="sourcePoint" />
            <mxPoint x="-427" y="-395" as="targetPoint" />
          </mxGeometry>
        </mxCell>
        <mxCell id="06jpUtFlK6CPKatlT8Im-37" value="&lt;font style=&quot;font-size: 14px;&quot;&gt;User details fetched&lt;/font&gt;" style="edgeLabel;html=1;align=center;verticalAlign=middle;resizable=0;points=[];fontSize=12;" parent="06jpUtFlK6CPKatlT8Im-34" vertex="1" connectable="0">
          <mxGeometry x="0.0478" y="-1" relative="1" as="geometry">
            <mxPoint x="1" as="offset" />
          </mxGeometry>
        </mxCell>
        <mxCell id="x3w0C0bRtv-WAbDGBeUA-3" value="&lt;span style=&quot;font-size: 20px;&quot;&gt;UI Application&lt;/span&gt;" style="rounded=0;whiteSpace=wrap;html=1;" parent="1" vertex="1">
          <mxGeometry x="-727" y="-608" width="120" height="60" as="geometry" />
        </mxCell>
        <mxCell id="dnPCXCKaiIPUW16wsFYT-2" value="" style="endArrow=none;dashed=1;html=1;rounded=0;fontSize=12;startSize=8;endSize=8;curved=1;strokeWidth=5;" edge="1" parent="1">
          <mxGeometry width="50" height="50" relative="1" as="geometry">
            <mxPoint x="-881" y="42" as="sourcePoint" />
            <mxPoint x="-880.59" y="-548" as="targetPoint" />
          </mxGeometry>
        </mxCell>
        <mxCell id="dnPCXCKaiIPUW16wsFYT-3" value="" style="endArrow=classic;html=1;rounded=0;fontSize=12;startSize=8;endSize=8;curved=1;" edge="1" parent="1">
          <mxGeometry width="50" height="50" relative="1" as="geometry">
            <mxPoint x="-868" y="-492" as="sourcePoint" />
            <mxPoint x="-687" y="-495" as="targetPoint" />
          </mxGeometry>
        </mxCell>
        <mxCell id="dnPCXCKaiIPUW16wsFYT-8" value="&lt;font style=&quot;font-size: 14px;&quot;&gt;User enter login credentials&lt;/font&gt;" style="edgeLabel;html=1;align=center;verticalAlign=middle;resizable=0;points=[];fontSize=12;" vertex="1" connectable="0" parent="dnPCXCKaiIPUW16wsFYT-3">
          <mxGeometry x="-0.0318" y="2" relative="1" as="geometry">
            <mxPoint x="1" as="offset" />
          </mxGeometry>
        </mxCell>
        <mxCell id="dnPCXCKaiIPUW16wsFYT-9" value="" style="endArrow=classic;html=1;rounded=0;fontSize=12;startSize=8;endSize=8;curved=1;" edge="1" parent="1">
          <mxGeometry width="50" height="50" relative="1" as="geometry">
            <mxPoint x="-478" y="-372" as="sourcePoint" />
            <mxPoint x="-652" y="-370" as="targetPoint" />
          </mxGeometry>
        </mxCell>
        <mxCell id="dnPCXCKaiIPUW16wsFYT-10" value="&lt;font style=&quot;font-size: 14px;&quot;&gt;API Response&lt;/font&gt;" style="edgeLabel;html=1;align=center;verticalAlign=middle;resizable=0;points=[];fontSize=12;" vertex="1" connectable="0" parent="dnPCXCKaiIPUW16wsFYT-9">
          <mxGeometry x="0.0478" y="-1" relative="1" as="geometry">
            <mxPoint x="1" as="offset" />
          </mxGeometry>
        </mxCell>
        <mxCell id="dnPCXCKaiIPUW16wsFYT-13" value="&lt;font style=&quot;font-size: 14px;&quot;&gt;401 Response Incorrect Password&lt;/font&gt;" style="text;html=1;align=center;verticalAlign=middle;whiteSpace=wrap;rounded=0;fontSize=16;" vertex="1" parent="1">
          <mxGeometry x="-876" y="-275.46" width="208" height="30" as="geometry" />
        </mxCell>
        <mxCell id="dnPCXCKaiIPUW16wsFYT-14" value="&lt;span style=&quot;font-size: 14px;&quot;&gt;403 Response Email not verified&lt;/span&gt;" style="text;html=1;align=center;verticalAlign=middle;whiteSpace=wrap;rounded=0;fontSize=16;" vertex="1" parent="1">
          <mxGeometry x="-876" y="-196.45999999999998" width="208" height="30" as="geometry" />
        </mxCell>
        <mxCell id="dnPCXCKaiIPUW16wsFYT-15" value="&lt;span style=&quot;font-size: 14px;&quot;&gt;200 Response, Successful Login&lt;/span&gt;" style="text;html=1;align=center;verticalAlign=middle;whiteSpace=wrap;rounded=0;fontSize=16;" vertex="1" parent="1">
          <mxGeometry x="-875" y="-132.45999999999998" width="208" height="30" as="geometry" />
        </mxCell>
      </root>
    </mxGraphModel>
  </diagram>
</mxfile>
